HIERARCHY
ROOT joint_0
{
	OFFSET 0.000000 0.000000 0.000000
	CHANNELS 6 Xposition Yposition Zposition Zrotation Yrotation Xrotation 
	JOINT joint_1
	{
		OFFSET 0.511002 1.944000 108.288940
		CHANNELS 3 Zrotation Yrotation Xrotation
		JOINT joint_2
		{
			OFFSET -9.074005 1.512993 98.440063
			CHANNELS 3 Zrotation Yrotation Xrotation
			JOINT joint_3
			{
				OFFSET -8.590996 1.815002 98.366943
				CHANNELS 3 Zrotation Yrotation Xrotation
				JOINT joint_4
				{
					OFFSET 2.489998 3.531998 136.462036
					CHANNELS 3 Zrotation Yrotation Xrotation
					JOINT joint_5
					{
						OFFSET 22.708000 2.955002 80.357056
						CHANNELS 3 Zrotation Yrotation Xrotation
						End Site
						{
							OFFSET 0.000000 0.000000 0.000000
						}
					}
				}
				JOINT joint_6
				{
					OFFSET 2.860001 -27.684998 77.234009
					CHANNELS 3 Zrotation Yrotation Xrotation
					JOINT joint_7
					{
						OFFSET 5.449997 -131.244003 -18.851929
						CHANNELS 3 Zrotation Yrotation Xrotation
						JOINT joint_8
						{
							OFFSET 35.757000 -24.661995 -264.074097
							CHANNELS 3 Zrotation Yrotation Xrotation
							JOINT joint_9
							{
								OFFSET 49.392001 -1.747002 -239.960938
								CHANNELS 3 Zrotation Yrotation Xrotation
								End Site
								{
									OFFSET 0.000000 0.000000 0.000000
								}
							}
						}
					}
				}
				JOINT joint_10
				{
					OFFSET -0.127998 31.625000 75.753052
					CHANNELS 3 Zrotation Yrotation Xrotation
					JOINT joint_11
					{
						OFFSET -5.618004 131.132996 -19.557007
						CHANNELS 3 Zrotation Yrotation Xrotation
						JOINT joint_12
						{
							OFFSET 46.488998 30.127991 -261.826050
							CHANNELS 3 Zrotation Yrotation Xrotation
							JOINT joint_13
							{
								OFFSET 66.021003 0.474030 -235.934937
								CHANNELS 3 Zrotation Yrotation Xrotation
								End Site
								{
									OFFSET 0.000000 0.000000 0.000000
								}
							}
						}
					}
				}
			}
		}
	}
	JOINT joint_14
	{
		OFFSET 15.887001 -78.871004 -94.561035
		CHANNELS 3 Zrotation Yrotation Xrotation
		JOINT joint_15
		{
			OFFSET -4.133003 6.714001 -473.615967
			CHANNELS 3 Zrotation Yrotation Xrotation
			JOINT joint_16
			{
				OFFSET -19.541000 5.340000 -399.613007
				CHANNELS 3 Zrotation Yrotation Xrotation
				JOINT joint_17
				{
					OFFSET 164.317001 41.657999 -73.195000
					CHANNELS 3 Zrotation Yrotation Xrotation
					End Site
					{
						OFFSET 0.000000 0.000000 0.000000
					}
				}
			}
		}
	}
	JOINT joint_18
	{
		OFFSET 6.513000 77.960991 -96.406982
		CHANNELS 3 Zrotation Yrotation Xrotation
		JOINT joint_19
		{
			OFFSET -10.660004 -8.518997 -473.485016
			CHANNELS 3 Zrotation Yrotation Xrotation
			JOINT joint_20
			{
				OFFSET -36.967995 -11.098999 -398.260010
				CHANNELS 3 Zrotation Yrotation Xrotation
				JOINT joint_21
				{
					OFFSET 166.067997 30.363998 -74.785000
					CHANNELS 3 Zrotation Yrotation Xrotation
					End Site
					{
						OFFSET 0.000000 0.000000 0.000000
					}
				}
			}
		}
	}
}
MOTION
Frames: 9
Frame Time: 0.016667
-73.538000 84.194000 1059.105960 0.688332 3.140705 0.417722 0.697495 -2.049907 1.114907 0.541790 0.266887 -0.212610 0.585757 -0.408334 0.142439 0.047331 -1.179396 -0.022593 0.000000 0.000000 0.000000 2.498568 -0.619856 0.203361 -0.121789 -0.297611 -1.108835 -0.155585 0.636452 -0.721651 0.000000 0.000000 0.000000 -0.331226 -0.511870 -1.060669 -0.188053 -0.490499 -1.044658 0.573796 1.336329 2.053500 0.000000 0.000000 0.000000 -3.210296 -0.473338 -0.751985 -3.225917 -1.049889 -0.088006 -3.191030 -1.568014 -1.020642 0.000000 0.000000 0.000000 -4.263804 -2.783416 2.157380 -4.258746 0.441625 -1.193041 -4.177088 -1.244505 -1.654531 0.000000 0.000000 0.000000 
-73.561000 84.220000 1059.181030 0.664294 3.362252 0.431005 0.694228 -1.983491 1.093578 0.542784 0.223128 -0.201533 0.583951 -0.391584 0.135146 0.054772 -1.231122 -0.040803 0.000000 0.000000 0.000000 2.159089 -0.731438 0.261982 -0.101245 -0.461748 -1.075110 -0.165811 0.679932 -0.769840 0.000000 0.000000 0.000000 0.206715 -0.582273 -1.125078 -0.228569 -0.644567 -1.044244 0.546790 1.442840 1.958209 0.000000 0.000000 0.000000 -3.211065 -0.711645 -0.749429 -3.223745 -1.066285 -0.092164 -3.189313 -1.580326 -1.016713 0.000000 0.000000 0.000000 -4.253421 -3.028209 2.147680 -4.255502 0.447180 -1.174536 -4.172031 -1.250343 -1.651116 0.000000 0.000000 0.000000 
-72.963000 84.312000 1059.326050 0.640232 3.653303 0.440028 0.697687 -1.841905 1.089691 0.548969 0.184749 -0.202495 0.588981 -0.361110 0.135528 0.069005 -1.568380 -0.048338 0.000000 0.000000 0.000000 1.902660 -0.742286 0.180879 -0.093495 -0.504537 -1.017409 -0.130701 0.482971 -0.611278 0.000000 0.000000 0.000000 0.503670 -0.527673 -1.081316 -0.233401 -0.638533 -1.083952 0.479924 1.218490 1.717543 0.000000 0.000000 0.000000 -3.208884 -0.970337 -0.759793 -3.219405 -1.121924 -0.065016 -3.183127 -1.574862 -1.015223 0.000000 0.000000 0.000000 -4.242610 -3.274699 2.147695 -4.250141 0.372460 -1.160872 -4.167841 -1.226957 -1.653339 0.000000 0.000000 0.000000 
-71.468000 84.528000 1059.567990 0.623347 4.031752 0.438037 0.713282 -1.555088 1.120318 0.564497 0.150988 -0.223080 0.605882 -0.309336 0.147580 0.089099 -2.398367 -0.018116 0.000000 0.000000 0.000000 1.771012 -0.566013 -0.188280 -0.114035 -0.323979 -0.908675 -0.003064 -0.233114 -0.024152 0.000000 0.000000 0.000000 0.338229 -0.229027 -0.832421 -0.159754 -0.320293 -1.218663 0.342953 0.258017 1.227673 0.000000 0.000000 0.000000 -3.200614 -1.232079 -0.796730 -3.210860 -1.256459 0.025734 -3.168342 -1.542944 -1.016489 0.000000 0.000000 0.000000 -4.234700 -3.488094 2.168300 -4.243286 0.137213 -1.157280 -4.168149 -1.152250 -1.666797 0.000000 0.000000 0.000000 
-69.352000 84.809000 1059.880000 0.605496 4.472679 0.432299 0.736586 -1.176609 1.165139 0.586687 0.119066 -0.252337 0.630837 -0.254205 0.166460 0.115116 -3.523440 0.022625 0.000000 0.000000 0.000000 1.706601 -0.286820 -0.665431 -0.158501 -0.022730 -0.807683 0.164572 -1.188106 0.764751 0.000000 0.000000 0.000000 -0.065070 0.196679 -0.515987 -0.046390 0.163079 -1.362013 0.168045 -1.039687 0.613427 0.000000 0.000000 0.000000 -3.189440 -1.506117 -0.847837 -3.200122 -1.431542 0.147924 -3.149110 -1.489592 -1.021099 0.000000 0.000000 0.000000 -4.225958 -3.694304 2.197310 -4.233838 -0.181074 -1.158016 -4.169499 -1.042526 -1.686960 0.000000 0.000000 0.000000 
-66.881000 85.034000 1060.198000 0.574160 4.909551 0.437166 0.753266 -0.849005 1.189681 0.604247 0.089726 -0.268171 0.649170 -0.205660 0.174015 0.153092 -4.584945 0.008276 0.000000 0.000000 0.000000 1.785768 -0.040494 -0.918703 -0.205428 0.253031 -0.814803 0.272035 -1.770057 1.283151 0.000000 0.000000 0.000000 -0.404934 0.528827 -0.327660 0.028579 0.549291 -1.358537 0.019364 -1.797940 0.091244 0.000000 0.000000 0.000000 -3.182083 -1.782435 -0.886391 -3.191945 -1.556899 0.231076 -3.134631 -1.427036 -1.030094 0.000000 0.000000 0.000000 -4.208937 -3.918114 2.211453 -4.218572 -0.411755 -1.160141 -4.163302 -0.935827 -1.703121 0.000000 0.000000 0.000000 
-64.077000 85.145000 1060.498050 0.505024 5.365487 0.455828 0.756500 -0.630419 1.175213 0.612841 0.060835 -0.254735 0.653853 -0.148540 0.159458 0.216299 -5.526135 -0.114828 0.000000 0.000000 0.000000 2.127709 0.125162 -0.765595 -0.247321 0.457112 -1.070674 0.303143 -1.708168 1.440372 0.000000 0.000000 0.000000 -0.592530 0.675487 -0.332742 0.025403 0.736671 -1.060270 -0.125749 -1.585228 -0.431522 0.000000 0.000000 0.000000 -3.178621 -2.109933 -0.895138 -3.185075 -1.595264 0.248252 -3.124943 -1.345298 -1.046035 0.000000 0.000000 0.000000 -4.174979 -4.204301 2.209861 -4.190768 -0.516157 -1.165788 -4.141887 -0.827661 -1.712693 0.000000 0.000000 0.000000 
-60.917000 85.200000 1060.803960 0.422204 5.819615 0.484579 0.753203 -0.468638 1.138454 0.617451 0.037344 -0.225526 0.652327 -0.093448 0.134112 0.292400 -6.405715 -0.296454 0.000000 0.000000 0.000000 2.637442 0.255759 -0.406992 -0.283843 0.636741 -1.419180 0.279877 -1.272910 1.334783 0.000000 0.000000 0.000000 -0.733615 0.727994 -0.445933 -0.018804 0.827578 -0.625691 -0.252669 -0.837146 -0.891571 0.000000 0.000000 0.000000 -3.178679 -2.442424 -0.891043 -3.180568 -1.583515 0.226557 -3.119667 -1.253954 -1.066308 0.000000 0.000000 0.000000 -4.132817 -4.510354 2.193497 -4.157206 -0.533131 -1.173026 -4.112511 -0.722753 -1.718062 0.000000 0.000000 0.000000 
-57.602000 85.258000 1061.131960 0.383621 6.147845 0.526829 0.751515 -0.364201 1.103290 0.621795 0.039153 -0.205159 0.653053 -0.071276 0.116408 0.349828 -7.030340 -0.443136 0.000000 0.000000 0.000000 3.070495 0.350298 -0.123774 -0.291378 0.780206 -1.482616 0.164569 -0.660809 0.780950 0.000000 0.000000 0.000000 -0.831702 0.736431 -0.589007 -0.069029 0.859924 -0.393771 -0.240976 0.028809 -0.855172 0.000000 0.000000 0.000000 -3.188691 -2.637571 -0.897372 -3.186897 -1.541051 0.178015 -3.127366 -1.193429 -1.084514 0.000000 0.000000 0.000000 -4.100926 -4.739536 2.143076 -4.134618 -0.407480 -1.171031 -4.087834 -0.674787 -1.715209 0.000000 0.000000 0.000000 
